<?xml version="1.0" encoding="utf-8"?>
<!-- Svg Vector Icons : http://www.onlinewebfonts.com/icon -->
<!DOCTYPE svg PUBLIC "-//W3C//DTD SVG 1.1//EN" "http://www.w3.org/Graphics/SVG/1.1/DTD/svg11.dtd">
<svg version="1.1" xmlns="http://www.w3.org/2000/svg" xmlns:xlink="http://www.w3.org/1999/xlink" x="0px" y="0px" viewBox="0 0 1000 1000" enable-background="new 0 0 1000 1000" xml:space="preserve">
<metadata> Svg Vector Icons : http://www.onlinewebfonts.com/icon </metadata>
<g><g><g><path d="M166.7,535.1c-42.8,0-77.4,34.6-77.4,77.4c0,3.3,0.3,6.5,0.7,9.7c4.8,38.2,37.3,67.7,76.7,67.7c40.5,0,73.7-31.2,77.1-70.8c0.2-2.2,0.3-4.4,0.3-6.6C244.1,569.7,209.5,535.1,166.7,535.1z M127.9,583.3l15.8,15.8c-1.2,2.1-2.2,4.4-2.8,6.8h-22.3C119.8,597.5,123,589.8,127.9,583.3z M118.6,619.3H141c0.6,2.4,1.6,4.7,2.8,6.7l-15.8,15.8C123.1,635.4,119.7,627.7,118.6,619.3z M160,660.6c-8.4-1.2-16-4.4-22.5-9.3l15.7-15.7c2.1,1.2,4.3,2.1,6.7,2.7V660.6z M160,586.7c-2.4,0.6-4.7,1.6-6.8,2.9l-15.8-15.8c6.5-4.9,14.2-8.2,22.6-9.3V586.7z M173.4,564.5c8.5,1.2,16.1,4.4,22.6,9.4l-15.8,15.8c-2.1-1.3-4.4-2.2-6.8-2.9V564.5z M173.4,660.6v-22.3c2.4-0.6,4.6-1.5,6.7-2.7l15.8,15.8C189.4,656.1,181.8,659.4,173.4,660.6z M205.5,641.9L189.6,626c1.2-2.1,2.3-4.3,2.9-6.7h22.3C213.5,627.7,210.4,635.5,205.5,641.9z M192.5,605.9c-0.6-2.4-1.6-4.7-2.8-6.8l15.8-15.8c4.9,6.5,8.1,14.2,9.3,22.6L192.5,605.9L192.5,605.9z"/><path d="M818.5,535.1c-42.8,0-77.4,34.6-77.4,77.4c0,3.3,0.3,6.5,0.7,9.7c4.8,38.2,37.3,67.7,76.7,67.7c40.5,0,73.7-31.2,77.1-70.8c0.2-2.2,0.3-4.4,0.3-6.6C895.9,569.7,861.2,535.1,818.5,535.1z M779.7,583.3l15.8,15.8c-1.2,2.1-2.2,4.4-2.8,6.8h-22.3C771.6,597.5,774.8,589.8,779.7,583.3z M770.3,619.3h22.4c0.6,2.4,1.6,4.7,2.8,6.7l-15.8,15.8C774.9,635.4,771.5,627.7,770.3,619.3z M811.8,660.6c-8.4-1.2-16-4.4-22.5-9.3l15.7-15.7c2.1,1.2,4.3,2.1,6.7,2.7V660.6z M811.8,586.7c-2.4,0.6-4.7,1.6-6.8,2.9l-15.8-15.8c6.5-4.9,14.2-8.2,22.6-9.3V586.7z M825.2,564.5c8.5,1.2,16.1,4.4,22.6,9.4L832,589.6c-2.1-1.3-4.4-2.2-6.8-2.9V564.5z M825.2,660.6v-22.3c2.4-0.6,4.6-1.5,6.7-2.7l15.8,15.8C841.2,656.1,833.6,659.4,825.2,660.6z M857.3,641.9L841.4,626c1.2-2.1,2.3-4.3,2.9-6.7h22.3C865.3,627.7,862.2,635.5,857.3,641.9z M844.3,605.9c-0.6-2.4-1.6-4.7-2.8-6.8l15.8-15.8c4.9,6.5,8.1,14.2,9.3,22.6L844.3,605.9L844.3,605.9z"/><path d="M983.3,510.4l-14.9-14.2l0-44.8c0-11.8-4.3-23.1-12.2-31.9l-55-60.9v0c-0.3-12.7-9.3-23.4-21.8-25.7c-65.4-12.3-268.3-44.1-428.9-0.9c-99.2,26.7-200.1,80.3-200.1,80.3s-175.2,22.3-217.2,77c-14.6,19-20.8,44.1-23,66.6c-3.1,31.5,17.6,60.3,48.5,67.2l16.2,3.7c-0.1-0.9-0.3-1.8-0.5-2.7c-0.5-4.1-0.8-8-0.8-11.7c0-51.3,41.7-93,93-93c51.3,0,93,41.7,93,93c0,2.7-0.2,5.3-0.4,7.9c-0.3,3.2-0.7,6.3-1.3,9.3l469.4,0.9c-0.4-2.2-0.9-4.3-1.1-6.5c-0.5-4.1-0.8-8-0.8-11.7c0-51.3,41.7-93,93-93c51.3,0,93,41.7,93,93c0,2.7-0.2,5.3-0.4,7.9c-0.3,3.6-0.9,7.2-1.6,10.7l6.4,0l26.7-14.6c27.9-15.2,45.7-44,46.9-75.7l0.5-13.9C990.2,520.7,987.8,514.7,983.3,510.4z M342.7,418.6l7.2-28.7c0,0,108.7-56.9,290.7-50.7V424l-291.4,23C349.2,447,350.7,428.8,342.7,418.6z M809.7,410.7l-137,10.8V341c45.1,3.3,94,10.4,146.6,23.1c5.3,1.3,9.6,5.2,11.3,10.4c1.7,5.2,0.6,10.9-2.9,15.1L809.7,410.7z"/></g></g><g></g><g></g><g></g><g></g><g></g><g></g><g></g><g></g><g></g><g></g><g></g><g></g><g></g><g></g><g></g></g>
</svg>