<?xml version="1.0" encoding="utf-8"?>
<!-- Svg Vector Icons : http://www.onlinewebfonts.com/icon -->
<!DOCTYPE svg PUBLIC "-//W3C//DTD SVG 1.1//EN" "http://www.w3.org/Graphics/SVG/1.1/DTD/svg11.dtd">
<svg version="1.1" xmlns="http://www.w3.org/2000/svg" xmlns:xlink="http://www.w3.org/1999/xlink" x="0px" y="0px" viewBox="0 0 1000 1000" enable-background="new 0 0 1000 1000" xml:space="preserve">
<metadata> Svg Vector Icons : http://www.onlinewebfonts.com/icon </metadata>
<g><g transform="translate(0.000000,511.000000) scale(0.100000,-0.100000)"><path d="M6275.8,1786.8c-983.7-23.5-1638.9-107.6-2063.3-266c-371.6-138.8-972-440-1525.4-768.6c-254.2-150.6-254.2-150.6-430.2-164.3C1597.8,539,737.3,290.6,422.5,59.9C356,11,271.9-124,271.9-182.6c0-23.5-11.7-43-27.4-43c-13.7,0-48.9-17.6-74.3-39.1c-91.9-70.4-93.9-348.1-3.9-389.2c45-19.6,46.9-27.4,46.9-234.7c0-176,5.9-215.1,31.3-224.9c39.1-15.7,727.5-15.7,803.8,0c58.7,11.7,58.7,11.7,43,111.5c-23.5,142.8,11.7,348.1,84.1,500.7c162.3,342.2,573,557.4,934.8,494.8c260.1-46.9,533.9-236.6,651.2-449.8c97.8-179.9,136.9-432.2,93.9-614.1l-17.6-74.3h2030h2030l-17.6,74.3c-109.5,475.3,246.4,979.8,751,1063.9c365.7,60.6,762.7-150.6,929-492.8c66.5-136.9,113.4-359.8,93.9-451.8c-7.8-45-3.9-56.7,23.5-56.7c17.6,0,236.7,13.7,483.1,29.3c248.4,15.6,473.3,29.3,504.6,29.3c46.9,0,52.8,7.8,52.8,66.5c0,54.8,11.7,74.3,66.5,107.6c82.1,50.8,119.3,138.8,115.4,266c-1.9,76.3-11.7,103.7-48.9,131c-23.5,19.6-56.7,45-68.4,54.8c-17.6,15.6-25.4,97.8-25.4,289.4c0,600.4-90,903.5-422.4,1433.5l-105.6,168.2l-269.9,43c-829.2,133-1056.1,160.4-1412,170.1c-199.5,3.9-445.9,9.8-547.6,13.7C6897.8,1796.5,6571.1,1792.6,6275.8,1786.8z M6794.1,1468c25.4-15.6,78.2-107.6,125.2-215.1c80.2-183.8,82.1-187.7,76.3-387.2l-5.9-201.4l-704-52.8c-387.2-27.4-708-48.9-711.9-43c-15.7,15.6,39.1,815.5,58.7,850.7c25.4,46.9,54.8,52.8,379.4,74.3C6377.5,1518.8,6735.4,1505.1,6794.1,1468z M7938.2,1473.8c393.1-13.7,618-31.3,657.1-46.9c43-17.6,123.2-109.5,279.7-322.7c119.3-164.3,217.1-309,217.1-322.7s-11.7-33.3-23.5-45c-23.5-17.6-1691.7-95.8-1707.3-78.2c-15.6,15.6-381.4,823.3-381.4,840.9c0,11.7,66.5,15.6,181.9,7.8C7259.6,1501.2,7609.6,1485.6,7938.2,1473.8z M9232.9,1348.7c133-174.1,400.9-727.5,369.6-758.8c-29.3-29.3-111.5,29.3-201.4,142.8c-183.8,226.9-426.3,578.9-426.3,620c0,48.9,84.1,105.6,146.7,97.8C9140.9,1448.4,9191.8,1403.4,9232.9,1348.7z M5368.4,1407.3c5.9-15.6-25.4-217.1-72.4-447.9L5213.9,541l-354-11.7c-195.6-5.9-545.6-15.6-778.4-21.5l-426.3-9.8v205.4v205.3l121.3,90c330.5,242.5,596.5,338.3,1136.2,408.7C5198.3,1442.5,5354.7,1444.5,5368.4,1407.3z"/><path d="M1740.6-243.2c-111.5-43-133-54.8-234.7-146.7c-291.4-266-287.5-735.4,7.8-1007.2c136.9-123.2,277.7-178,459.6-178c400.9,0,694.3,293.3,692.3,696.2c-2,256.2-160.4,500.6-397,610.2C2120-198.3,1893.2-188.5,1740.6-243.2z M2231.5-509.2c45-33.2,109.5-103.7,142.8-156.4c50.9-80.2,58.7-113.4,58.7-222.9c-3.9-487-643.4-643.4-860.5-211.2C1457-865.2,1550.9-589.4,1787.5-476c58.7,27.4,111.5,35.2,219,31.3C2125.9-450.6,2159.1-460.4,2231.5-509.2z"/><path d="M1803.2-648.1c-5.9-17.6-1.9-48.9,11.7-68.4c29.3-50.9-23.5-135-86.1-135c-25.4,0-48.9-11.7-52.8-23.5c-17.6-45,5.9-74.3,60.6-74.3c70.4,0,115.4-72.4,82.1-134.9c-43-78.2,43-117.3,91.9-41.1c13.7,21.5,45,39.1,72.4,39.1c27.4,0,58.7-17.6,72.4-39.1c29.3-46.9,90-50.8,105.6-9.8c7.8,15.6,1.9,43-11.7,58.7c-39.1,47,3.9,121.2,78.2,136.9c48.9,9.8,60.6,21.5,54.8,54.8c-3.9,31.3-21.5,45-60.6,48.9c-64.5,7.8-95.8,60.6-80.2,138.9c15.6,78.2-43,109.5-86.1,45c-37.2-56.7-131-58.7-160.4-3.9C1869.7-609,1820.8-605.1,1803.2-648.1z"/><path d="M7533.3-241.3c-168.2-60.6-299.2-176-393.1-346.2c-48.9-88-52.8-117.3-52.8-303.1c0-197.5,1.9-211.2,66.5-328.6c70.4-131,166.2-223,314.9-299.2c76.3-41.1,115.4-47,293.3-47c183.8,0,215.1,5.9,303.1,50.9c129.1,68.5,254.2,197.5,318.8,330.5c46.9,93.9,52.8,131,52.8,293.4c0,148.6-7.8,203.4-43,277.7c-58.7,129.1-205.3,279.7-334.4,342.2C7916.7-200.2,7683.9-188.5,7533.3-241.3z M7953.8-477.9C8124-564,8210-706.8,8212-896.5c0-217.1-138.8-393.1-352-443.9c-250.3-60.6-514.3,123.2-557.4,385.3c-27.4,178,84.1,391.2,248.4,473.3C7662.4-427.1,7852.1-425.1,7953.8-477.9z"/><path d="M7588.1-644.2c-17.6-21.5-17.6-37.2,0-66.5c37.2-58.7-3.9-136.9-74.3-144.7c-72.4-7.8-78.2-80.2-5.9-90c68.4-9.8,119.3-80.2,93.9-127.1c-41.1-80.2,39.1-129.1,86.1-52.8c33.3,52.8,121.3,50.9,156.5-3.9c45-66.5,101.7-33.2,86,50.9c-15.6,80.2,2,129.1,45,129.1c19.6,0,50.8,11.7,70.4,27.4c31.3,23.5,33.3,31.3,11.7,58.7c-13.7,17.6-45,31.3-68.4,31.3c-58.7,0-97.8,66.5-68.5,119.3c43,82.1-35.2,134.9-84.1,56.7c-15.6-23.5-46.9-39.1-76.3-39.1c-27.4,0-66.5,17.6-86.1,39.1C7633.1-609,7617.4-607,7588.1-644.2z"/></g></g>
</svg>