<?xml version="1.0" encoding="utf-8"?>
<!-- Svg Vector Icons : http://www.onlinewebfonts.com/icon -->
<!DOCTYPE svg PUBLIC "-//W3C//DTD SVG 1.1//EN" "http://www.w3.org/Graphics/SVG/1.1/DTD/svg11.dtd">
<svg version="1.1" xmlns="http://www.w3.org/2000/svg" xmlns:xlink="http://www.w3.org/1999/xlink" x="0px" y="0px" viewBox="0 0 1000 1000" enable-background="new 0 0 1000 1000" xml:space="preserve">
<metadata> Svg Vector Icons : http://www.onlinewebfonts.com/icon </metadata>
<g><g transform="translate(0.000000,511.000000) scale(0.100000,-0.100000)"><path d="M5117.6,2150c-294-19.6-648.8-68.6-744.8-100c-33.3-11.8-405.7-301.8-825.2-644.8l-762.4-623.3l-143.1-23.5c-346.9-56.8-1121.1-201.9-1419-264.6C791.9,399.7,592,337,537.1,276.2c-49-52.9-109.8-237.2-147-433.2c-21.6-113.7-31.4-133.3-92.1-172.5c-152.9-96-196-194-198-450.8c0-205.8,31.4-288.1,135.2-356.7c62.7-43.1,84.3-45.1,421.4-45.1h356.7l23.5,160.7c105.8,729.1,899.6,1117.2,1530.8,746.7c282.2-164.6,492-505.7,492-801.6V-1182H5049h1989.4v68.6c0,284.2,174.5,609.6,425.3,787.9c409.6,292,958.4,248.9,1307.3-100c180.3-180.3,305.8-452.8,305.8-662.5c0-41.2,9.8-74.5,19.6-74.5c60.8,0,517.5,164.6,558.6,201.9c33.3,27.4,54.9,74.5,64.7,131.3c13.7,80.4,19.6,88.2,72.5,94.1c86.3,9.8,107.8,51,107.8,215.6c0,178.4-19.6,219.5-103.9,219.5h-62.7l5.9,339.1c3.9,188.2-2,437.1-11.8,552.7c-15.7,184.2-23.5,217.6-62.7,248.9c-23.5,19.6-66.7,35.3-94.1,35.3c-72.5,0-241.1,178.4-531.2,566.4c-180.3,243-237.1,333.2-229.3,362.6c5.9,23.5,17.6,60.8,23.5,84.3c13.7,51,9.8,51-286.2,101.9c-613.5,103.9-1375.9,158.8-2381.4,168.6C5735,2163.7,5262.6,2159.8,5117.6,2150z M7273.6,1973.6c135.3-9.8,284.2-23.5,329.3-31.4l86.2-9.8l-13.7-523.3c-7.9-288.1-19.6-529.2-27.5-537.1c-5.9-7.8-343-27.4-746.7-43.1c-403.8-17.6-789.9-35.3-858.5-39.2l-121.5-9.8l3.9,601.7l5.9,601.7l88.2,13.7C6129,2012.8,6946.3,1997.1,7273.6,1973.6z M5684,1971.6c43.1-15.7,60.8-33.3,60.8-62.7c0-115.6-80.4-1119.2-90.2-1129c-5.9-5.9-117.6-13.7-248.9-17.6c-1828.7-41.2-1844.4-41.2-1911-9.8c-35.3,17.6-76.4,49-92.1,72.5c-37.2,52.9-37.2,168.6,0,221.5c43.1,62.7,548.8,493.9,774.2,662.5c105.8,78.4,235.2,156.8,288.1,174.4c84.3,27.4,374.4,78.4,554.7,96C5186.2,1997.1,5627.2,1991.2,5684,1971.6z M8241.8,1885.4c152.9-41.2,266.6-109.8,380.2-235.2c182.3-198,366.5-644.8,280.3-678.2c-62.7-25.5-978-105.8-995.7-88.2c-9.8,9.8-45.1,654.6-45.1,840.8v190.1h133.3C8067.4,1914.8,8179.1,1901.1,8241.8,1885.4z"/><path d="M1795.4-398c-337.1-111.7-556.6-441-535.1-805.5c35.3-617.4,727.2-946.7,1246.6-591.9c488,333.2,429.2,1087.8-107.8,1352.4c-129.4,64.7-166.6,72.5-315.6,78.4C1954.2-360.8,1885.6-368.6,1795.4-398z M2259.9-621.4c292-123.5,435.1-468.4,311.6-748.7c-56.8-125.4-180.3-250.9-303.8-303.8c-278.3-119.6-629.2,21.6-746.8,299.9c-160.7,390,150.9,827.1,562.5,789.9C2146.2-588.1,2226.6-605.8,2259.9-621.4z"/><path d="M1854.2-829.2c-5.9-19.6-2-54.9,7.8-76.4c15.7-29.4,13.7-52.9-13.7-98c-27.5-51-43.1-58.8-84.3-51c-70.6,15.7-123.5-35.3-96-90.1c11.8-21.6,41.2-37.2,70.6-37.2c35.3,0,56.8-17.6,80.4-68.6c29.4-62.7,29.4-70.6-2-105.8c-47-51-25.5-119.6,37.2-119.6c25.5,0,56.8,19.6,74.5,45.1c43.1,66.7,141.1,51,182.3-27.4c52.9-105.8,160.7-51,121.5,62.7c-25.5,74.5,29.4,162.7,96,149c113.7-21.6,141.1,98,29.4,127.4c-84.3,23.5-117.6,100-74.5,176.4c17.6,27.5,25.5,64.7,19.6,82.3c-17.6,43.1-92.1,39.2-135.2-7.9c-21.6-23.5-60.8-39.2-96-39.2c-51,0-66.6,9.8-84.3,58.8C1960-778.2,1873.8-764.5,1854.2-829.2z"/><path d="M7867.5-376.4c-213.6-54.9-433.2-241.1-531.2-446.9c-47.1-101.9-52.9-135.2-52.9-329.3c0-203.8,3.9-223.4,62.7-345c243-492,907.5-595.8,1281.8-199.9c376.3,397.9,262.6,1021.2-229.3,1262.2c-111.7,54.9-154.9,64.7-299.9,70.6C8006.6-362.7,7902.8-368.6,7867.5-376.4z M8308.5-641c101.9-51,217.6-166.6,270.5-270.5c49-96,58.8-303.8,19.6-423.3c-43.1-131.3-164.6-264.6-297.9-329.3c-149-72.5-337.1-72.5-488,0c-335.2,164.6-427.3,605.6-180.3,885.9C7806.7-580.3,8079.1-525.4,8308.5-641z"/><path d="M7859.6-821.4c-19.6-23.5-19.6-43.1-3.9-88.2c33.3-86.2-19.6-170.5-111.7-178.4c-58.8-5.9-68.6-13.7-68.6-54.9c0-41.2,9.8-51,62.7-54.9c90.2-9.8,137.2-86.2,105.8-174.4c-19.6-52.9-19.6-72.5-2-94.1c35.3-43.1,70.5-35.3,113.7,19.6c52.9,66.6,145,66.6,188.2-2c43.1-62.7,115.6-58.8,125.4,7.8c3.9,25.5-2,56.9-13.7,70.6c-17.6,19.6-13.7,43.1,11.8,86.2c27.4,47,51,62.7,103.9,66.6c117.6,9.8,90.1,133.3-29.4,133.3c-60.8,0-98,86.2-66.6,158.8c11.8,31.4,17.6,68.6,9.8,86.2c-17.6,45.1-86.2,35.3-121.5-19.6c-43.1-66.6-152.9-68.6-186.2-3.9C7936.1-786.1,7898.8-774.3,7859.6-821.4z"/></g></g>
</svg>